PathFileType	4	(X/Y/Z)	C:/Users/beibeiliu/ov580/test_trc/User2\sequence.22_training_dense_right.trc
DataRate	CameraRate	NumFrames	NumMarkers	Units	OrigDataRate	OrigDataStartFrame	OrigNumFrames
120	120	8	19	mm	120	228	364
Frame#	Time	ThumbCMC			ThumbMCP			ThumbIP			ThumbTip			IndexMCP			IndexPIP			IndexTip			MiddleMCP			MiddlePIP			MiddleTip			RingMCP			RingPIP			RingTip			PinkyMCP			PinkyPIP			PinkyTip			BackHand1			BackHand2			BackHand3	
		X0	Y0	Z0	X1	Y1	Z1	X2	Y2	Z2	X3	Y3	Z3	X4	Y4	Z4	X5	Y5	Z5	X6	Y6	Z6	X7	Y7	Z7	X8	Y8	Z8	X9	Y9	Z9	X10	Y10	Z10	X11	Y11	Z11	X12	Y12	Z12	X13	Y13	Z13	X14	Y14	Z14	X15	Y15	Z15	X16	Y16	Z16	X17	Y17	Z17	X18	Y18	Z18	
227	1.89167	29.1921	-17.1317	78.2834	-2.71511	-15.1139	56.7535	-18.4383	-12.4071	25.624	-31.0643	-13.9452	6.86051	4.85775	4.53999	1.54653	-7.58876	-26.344	-2.10379	7.00606	-43.1749	22.9398	20.4779	-7.92034	-12.2269	6.84205	-40.1504	-5.01619	25.7543	-46.7655	28.7051	33.6155	-16.6191	-20.5998	20.1046	-42.4419	-15.1452	38.0323	-46.9586	19.0931	57.8919	-11.7923	-16.4178	40.2564	-11.0448	-38.0619	28.0332	-7.96445	-56.7324	78.4869	-1.79436	28.4781	93.2362	-11.3648	60.8862	61.755	5.27568	63.4254	
228	1.9	26.3403	-10.7184	72.6093	0.611921	-11.7235	52.7525	-13.0416	-10.7185	19.4409	-27.9775	-12.395	-1.67027	13.0423	3.05905	-2.35946	-2.96662	-24.2562	-8.80006	7.24075	-44.6998	23.8223	29.6991	-10.0538	-14.7931	12.1714	-41.8251	-9.75663	24.8613	-47.6275	28.5627	41.7258	-19.584	-20.7313	27.0648	-49.3185	-16.2115	39.9323	-47.8669	19.1741	68.2239	-20.045	-20.1184	51.8589	-18.5113	-38.4898	34.6937	-12.3852	-58.5638	83.8243	-5.43443	28.848	95.5084	-12.6644	58.6072	60.9952	8.81057	57.9877	
229	1.90833	31.0915	-9.60837	69.6094	6.54619	-11.6422	47.7807	-10.6756	-10.8199	15.1529	-22.9979	-15.3294	-4.76193	18.777	0.543635	-9.4317	1.87657	-27.3322	-13.223	12.8111	-47.1384	20.252	32.1847	-12.8641	-17.1274	15.3685	-48.2759	-9.76606	27.5538	-48.5222	27.4403	43.992	-28.2584	-26.5845	28.9865	-54.0439	-16.2336	40.7923	-53.4528	15.3793	71.6385	-27.1135	-24.943	53.5963	-26.1797	-43.8308	42.2643	-24.2184	-65.1734	88.9064	-12.1166	20.9125	100.043	-16.794	58.0032	67.5566	7.22359	53.7543	
230	1.91667	37.9694	-8.98262	60.5978	11.9006	-11.7643	37.6369	-5.90969	-14.5498	9.64799	-16.5476	-18.8524	-15.2216	23.6306	-3.38464	-14.7763	7.31612	-30.4517	-17.0314	9.75837	-47.7284	14.8224	40.0732	-21.6725	-22.9951	16.0882	-51.1295	-11.6735	25.9407	-53.5346	23.5785	49.8999	-35.0864	-26.1913	32.2197	-60.4368	-15.1285	44.5336	-52.1117	17.9218	75.0093	-36.7087	-25.4949	61.6777	-39.5563	-47.7366	50.8995	-39.1004	-64.6094	95.4072	-19.8681	21.7821	106.349	-22.3233	54.5768	72.1048	3.75733	49.1692	
231	1.925	37.3656	-6.32246	58.9851	12.1084	-10.8757	33.3624	-6.02399	-15.4508	6.1189	-14.1072	-23.6244	-17.5201	26.141	-8.58595	-18.3139	5.17898	-37.7314	-14.7867	12.3175	-52.4602	16.5291	42.8406	-31.2169	-24.7689	18.3283	-57.2819	-11.1046	28.4374	-59.332	24.3717	51.7694	-45.1062	-25.7867	32.5586	-65.4282	-15.0975	45.7389	-59.8999	17.9937	81.4777	-49.5044	-24.3999	65.25	-53.3094	-47.9906	54.0125	-50.1381	-65.8447	96.4301	-24.6172	19.8034	107.347	-24.4466	50.0483	78.3248	-0.0366566	41.4896	
232	1.93333	41.9193	-7.80139	57.9093	15.8899	-14.0857	33.6628	-3.16259	-19.0911	1.28932	-16.6166	-27.3741	-18.9075	27.5599	-18.1124	-21.868	7.80822	-42.8965	-14.662	10.2037	-55.0176	16.8106	40.3161	-39.861	-25.1908	18.1701	-61.7983	-11.0302	28.5952	-60.1152	31.8612	51.6231	-57.6749	-24.9881	30.2777	-70.8406	-5.25472	44.8418	-58.2294	23.9979	77.9753	-55.8673	-22.8479	62.8783	-61.6671	-45.1849	52.7435	-63.5734	-60.9668	97.3469	-31.6931	15.9404	109.129	-29.4796	53.4233	77.5943	0.446508	41.7696	
233	1.94167	40.9079	-6.31853	56.1482	12.9246	-12.2426	32.7764	-5.15723	-21.452	1.67161	-20.8544	-29.6158	-13.9906	26.862	-20.6505	-19.097	3.42662	-47.4899	-11.3218	6.8765	-55.9005	18.8919	36.5618	-40.3736	-22.5499	13.3763	-63.9357	-5.40335	21.6536	-60.3495	35.8322	47.7377	-61.8653	-19.6022	28.8089	-77.6484	-1.01654	44.0977	-61.3553	30.4521	75.2751	-64.4484	-17.6923	58.1625	-72.6562	-42.2385	48.2954	-77.1495	-58.4749	96.8632	-34.3168	20.0884	106.118	-27.9092	48.6244	79.7493	-4.19866	38.1855	
234	1.95	38.6226	-6.00295	57.493	11.7987	-14.564	33.156	-10.3149	-23.8943	5.91817	-22.6622	-34.1403	-11.1067	21.078	-28.7679	-19.0941	0.484297	-50.9318	-7.70884	1.45938	-54.5111	27.7424	34.0405	-46.371	-18.3669	8.79172	-66.7013	-0.555899	18.9696	-61.2429	40.7018	41.6508	-64.847	-14.4798	22.7324	-79.9815	6.24281	39.4543	-58.2539	36.5559	69.0207	-71.136	-16.5937	50.361	-76.3048	-32.6609	36.0305	-82.8086	-50.1333	92.374	-35.4798	17.7918	103.422	-28.521	48.5801	76.1388	-5.42678	36.039	
